<svg width="233" height="47" viewBox="0 0 233 47" fill="none" xmlns="http://www.w3.org/2000/svg">
<g clip-path="url(#clip0_9_34463)">
<path fill-rule="evenodd" clip-rule="evenodd" d="M29.4776 13.4786C27.5807 12.2112 25.3506 11.5347 23.0693 11.5347V0C27.632 0 32.0922 1.35299 35.8859 3.88788C39.6797 6.42276 42.6365 10.0257 44.3826 14.241C46.1286 18.4564 46.5855 23.0949 45.6953 27.5699C44.8052 32.0449 42.6081 36.1555 39.3817 39.3817C36.1555 42.6081 32.0449 44.8052 27.5699 45.6953C23.0949 46.5855 18.4564 46.1286 14.241 44.3826C10.0257 42.6365 6.42276 39.6797 3.88788 35.8859C1.35299 32.0922 0 27.632 0 23.0693H11.5347C11.5347 25.3506 12.2112 27.5807 13.4786 29.4776C14.746 31.3745 16.5475 32.8529 18.6552 33.7259C20.7628 34.599 23.0821 34.8274 25.3196 34.3823C27.5571 33.9373 29.6123 32.8387 31.2256 31.2256C32.8387 29.6123 33.9373 27.5571 34.3823 25.3196C34.8274 23.0821 34.599 20.7628 33.7259 18.6552C32.8529 16.5475 31.3745 14.746 29.4776 13.4786Z" fill="#0BB783"/>
<path fill-rule="evenodd" clip-rule="evenodd" d="M11.5346 6.09598e-06C11.5346 1.51476 11.2363 3.01468 10.6566 4.41413C10.077 5.81357 9.22732 7.08514 8.15623 8.15624C7.08514 9.22734 5.81357 10.077 4.41412 10.6566C3.01467 11.2363 1.51475 11.5347 5.04191e-07 11.5347L0 23.0693C3.0295 23.0693 6.02934 22.4726 8.82825 21.3133C11.6272 20.1539 14.1703 18.4546 16.3124 16.3124C18.4546 14.1703 20.1539 11.6272 21.3133 8.82825C22.4726 6.02934 23.0693 3.0295 23.0693 0L11.5346 6.09598e-06Z" fill="#0BB783"/>
<path d="M144.897 16.6705H139.301V34.448H144.897V16.6705Z" fill="#0BB783"/>
<path d="M139.923 13.3417C140.508 13.9269 141.24 14.2196 142.117 14.2196C142.995 14.2196 143.715 13.9269 144.275 13.3417C144.837 12.7321 145.117 12.0004 145.117 11.1469C145.117 10.269 144.837 9.53741 144.275 8.95216C143.715 8.36687 142.995 8.07425 142.117 8.07425C141.24 8.07425 140.508 8.36687 139.923 8.95216C139.362 9.53741 139.081 10.269 139.081 11.1469C139.081 12.0004 139.362 12.7321 139.923 13.3417Z" fill="#0BB783"/>
<path d="M59.0069 34.448V8.62296H64.7499V29.4001H76.1993V34.448H59.0069Z" fill="#0BB783"/>
<path fill-rule="evenodd" clip-rule="evenodd" d="M86.5415 34.8503C84.7126 34.8503 83.0544 34.448 81.5667 33.6432C80.1036 32.8141 78.9453 31.6924 78.0917 30.2779C77.2382 28.8635 76.8115 27.2784 76.8115 25.5226C76.8115 23.7668 77.2382 22.1939 78.0917 20.8039C78.9453 19.4139 80.1036 18.3164 81.5667 17.5118C83.0299 16.6826 84.6882 16.268 86.5415 16.268C88.3949 16.268 90.0531 16.6704 91.5163 17.4751C92.9795 18.2799 94.1379 19.3895 94.9913 20.8039C95.8449 22.1939 96.2717 23.7668 96.2717 25.5226C96.2717 27.2784 95.8449 28.8635 94.9913 30.2779C94.1379 31.6924 92.9795 32.8141 91.5163 33.6432C90.0531 34.448 88.3949 34.8503 86.5415 34.8503ZM86.5415 29.7659C87.3463 29.7659 88.0535 29.5951 88.6632 29.2537C89.2728 28.888 89.7362 28.388 90.0531 27.754C90.3946 27.0956 90.5653 26.3517 90.5653 25.5226C90.5653 24.6935 90.3946 23.9741 90.0531 23.3645C89.7117 22.7304 89.2362 22.2427 88.6265 21.9013C88.0413 21.5354 87.3463 21.3526 86.5415 21.3526C85.7612 21.3526 85.0662 21.5354 84.4565 21.9013C83.8469 22.2427 83.3713 22.7304 83.0299 23.3645C82.6885 23.9985 82.5179 24.7301 82.5179 25.5592C82.5179 26.3639 82.6885 27.0956 83.0299 27.754C83.3713 28.388 83.8469 28.888 84.4565 29.2537C85.0662 29.5951 85.7612 29.7659 86.5415 29.7659Z" fill="#0BB783"/>
<path fill-rule="evenodd" clip-rule="evenodd" d="M100.704 41.3981C102.192 42.0809 103.911 42.4223 105.862 42.4223C107.764 42.4223 109.459 42.0443 110.946 41.2883C112.434 40.5323 113.604 39.4838 114.458 38.1426C115.311 36.8013 115.739 35.2162 115.739 33.3872V16.6705H110.251V17.8649C109.843 17.5214 109.38 17.233 108.861 16.9997C107.91 16.5363 106.825 16.3046 105.606 16.3046C103.972 16.3046 102.521 16.6948 101.253 17.4751C99.9846 18.2311 98.9849 19.2797 98.2532 20.621C97.5216 21.9379 97.1559 23.4254 97.1559 25.0837C97.1559 26.7176 97.5216 28.2051 98.2532 29.5464C98.9849 30.8876 99.9846 31.9485 101.253 32.7288C102.521 33.5091 103.972 33.8993 105.606 33.8993C106.801 33.8993 107.886 33.6677 108.861 33.2044C109.334 32.9799 109.761 32.7154 110.142 32.4108V33.5336C110.142 34.7772 109.739 35.7405 108.934 36.4233C108.154 37.1062 107.069 37.4475 105.679 37.4475C104.557 37.4475 103.594 37.2525 102.789 36.8622C102.009 36.4721 101.302 35.899 100.667 35.143L97.2291 38.5815C98.0825 39.8008 99.241 40.7397 100.704 41.3981ZM108.678 28.4124C108.117 28.7538 107.447 28.9245 106.666 28.9245C105.886 28.9245 105.203 28.7538 104.618 28.4124C104.057 28.071 103.618 27.6076 103.301 27.0224C102.984 26.4128 102.826 25.7665 102.826 25.0837C102.826 24.3521 102.984 23.6937 103.301 23.1084C103.618 22.5232 104.069 22.0598 104.655 21.7184C105.24 21.377 105.911 21.2062 106.666 21.2062C107.447 21.2062 108.117 21.377 108.678 21.7184C109.264 22.0598 109.703 22.5232 109.995 23.1084C110.312 23.6937 110.471 24.3521 110.471 25.0837C110.471 25.8153 110.312 26.4737 109.995 27.0589C109.703 27.6199 109.264 28.071 108.678 28.4124Z" fill="#0BB783"/>
<path fill-rule="evenodd" clip-rule="evenodd" d="M127.517 34.8503C125.687 34.8503 124.029 34.448 122.542 33.6432C121.078 32.8141 119.92 31.6924 119.066 30.2779C118.213 28.8635 117.786 27.2784 117.786 25.5226C117.786 23.7668 118.213 22.1939 119.066 20.8039C119.92 19.4139 121.078 18.3164 122.542 17.5118C124.004 16.6826 125.663 16.268 127.517 16.268C129.369 16.268 131.028 16.6704 132.49 17.4751C133.954 18.2799 135.112 19.3895 135.966 20.8039C136.819 22.1939 137.246 23.7668 137.246 25.5226C137.246 27.2784 136.819 28.8635 135.966 30.2779C135.112 31.6924 133.954 32.8141 132.49 33.6432C131.028 34.448 129.369 34.8503 127.517 34.8503ZM127.517 29.7659C128.321 29.7659 129.028 29.5951 129.638 29.2537C130.247 28.888 130.711 28.388 131.028 27.754C131.369 27.0956 131.54 26.3517 131.54 25.5226C131.54 24.6935 131.369 23.9741 131.028 23.3645C130.686 22.7304 130.211 22.2427 129.601 21.9013C129.016 21.5354 128.321 21.3526 127.517 21.3526C126.736 21.3526 126.04 21.5354 125.431 21.9013C124.821 22.2427 124.346 22.7304 124.004 23.3645C123.663 23.9985 123.492 24.7301 123.492 25.5592C123.492 26.3639 123.663 27.0956 124.004 27.754C124.346 28.388 124.821 28.888 125.431 29.2537C126.04 29.5951 126.736 29.7659 127.517 29.7659Z" fill="#0BB783"/>
<path fill-rule="evenodd" clip-rule="evenodd" d="M158.349 34.8138C157.155 34.8138 156.057 34.5822 155.057 34.1188C154.531 33.875 154.056 33.5839 153.631 33.2454V41.9468H148.107V16.6705H153.704V17.8974C154.11 17.5653 154.561 17.2782 155.057 17.0362C156.057 16.5484 157.155 16.3046 158.349 16.3046C160.032 16.3046 161.52 16.707 162.812 17.5118C164.129 18.3165 165.153 19.4139 165.884 20.8039C166.641 22.194 167.018 23.7791 167.018 25.5592C167.018 27.3395 166.641 28.9245 165.884 30.3146C165.153 31.7046 164.129 32.8019 162.812 33.6067C161.52 34.4115 160.032 34.8138 158.349 34.8138ZM157.326 29.7659C158.13 29.7659 158.825 29.5829 159.41 29.2172C160.02 28.8514 160.495 28.3514 160.837 27.7174C161.178 27.0834 161.349 26.364 161.349 25.5592C161.349 24.7301 161.178 23.9986 160.837 23.3645C160.495 22.7304 160.02 22.2428 159.41 21.9013C158.825 21.5354 158.142 21.3526 157.362 21.3526C156.582 21.3526 155.886 21.5354 155.277 21.9013C154.691 22.2428 154.229 22.7304 153.887 23.3645C153.546 23.9986 153.375 24.7301 153.375 25.5592C153.375 26.364 153.533 27.0834 153.85 27.7174C154.192 28.3514 154.667 28.8514 155.277 29.2172C155.886 29.5829 156.569 29.7659 157.326 29.7659Z" fill="#0BB783"/>
<path d="M172.496 34.4846C173.52 34.7529 174.556 34.8869 175.605 34.8869C177.824 34.8869 179.58 34.3749 180.873 33.3506C182.189 32.3265 182.847 30.9486 182.847 29.2172C182.847 28.0954 182.641 27.1931 182.226 26.5103C181.812 25.8031 181.275 25.2422 180.617 24.8277C179.958 24.4131 179.262 24.0838 178.531 23.8399C177.8 23.5961 177.104 23.3888 176.447 23.2181C175.788 23.0474 175.252 22.8523 174.836 22.6328C174.422 22.4133 174.215 22.1207 174.215 21.7549C174.215 21.4135 174.374 21.1574 174.69 20.9867C175.007 20.7917 175.482 20.6942 176.117 20.6942C176.775 20.6942 177.446 20.8282 178.128 21.0965C178.836 21.3647 179.47 21.8282 180.031 22.4866L183.213 19.2676C182.409 18.2433 181.36 17.4751 180.067 16.9631C178.8 16.4266 177.41 16.1583 175.898 16.1583C174.459 16.1583 173.203 16.4022 172.13 16.8899C171.057 17.3777 170.227 18.0483 169.642 18.9017C169.058 19.7308 168.765 20.7186 168.765 21.8647C168.765 22.9377 168.972 23.8278 169.386 24.535C169.8 25.2178 170.338 25.7544 170.995 26.1445C171.654 26.5347 172.35 26.8395 173.081 27.0589C173.812 27.2784 174.508 27.4857 175.166 27.6809C175.824 27.8516 176.361 28.0589 176.775 28.3027C177.215 28.5222 177.434 28.8514 177.434 29.2903C177.434 29.6317 177.251 29.8999 176.885 30.0951C176.544 30.2901 176.044 30.3877 175.386 30.3877C174.434 30.3877 173.556 30.217 172.752 29.8756C171.947 29.5098 171.252 29.0099 170.667 28.3758L167.484 31.5948C168.094 32.2532 168.826 32.8386 169.679 33.3506C170.557 33.8383 171.496 34.2163 172.496 34.4846Z" fill="#0BB783"/>
<path d="M193.053 34.8504C191.42 34.8504 189.969 34.5212 188.701 33.8628C187.457 33.1799 186.482 32.2532 185.775 31.0827C185.067 29.8878 184.714 28.5222 184.714 26.9858V16.6705H190.31V26.9127C190.31 27.5223 190.407 28.0466 190.603 28.4855C190.822 28.9245 191.14 29.266 191.554 29.5098C191.969 29.7536 192.468 29.8756 193.053 29.8756C193.883 29.8756 194.541 29.6195 195.029 29.1074C195.517 28.5709 195.76 27.8394 195.76 26.9127V16.6705H201.357V26.9492C201.357 28.51 201.004 29.8878 200.296 31.0827C199.589 32.2532 198.614 33.1799 197.369 33.8628C196.126 34.5212 194.688 34.8504 193.053 34.8504Z" fill="#0BB783"/>
<path d="M209.736 16.6705H204.139V34.448H209.736V24.0595C209.736 23.4499 209.858 22.9377 210.101 22.5232C210.37 22.1086 210.724 21.7915 211.163 21.5721C211.602 21.3282 212.102 21.2062 212.662 21.2062C213.467 21.2062 214.137 21.4623 214.674 21.9745C215.235 22.4621 215.516 23.1572 215.516 24.0595V34.448H221.112V24.0595C221.112 23.4499 221.235 22.9377 221.478 22.5232C221.747 22.1086 222.1 21.7915 222.539 21.5721C222.978 21.3282 223.478 21.2062 224.039 21.2062C224.844 21.2062 225.514 21.4623 226.05 21.9745C226.611 22.4621 226.891 23.1572 226.891 24.0595V34.448H232.489V23.4376C232.489 21.9501 232.172 20.682 231.537 19.6334C230.927 18.5603 230.086 17.7434 229.014 17.1826C227.965 16.5972 226.757 16.3046 225.392 16.3046C224.002 16.3046 222.746 16.6095 221.625 17.2192C220.896 17.6076 220.259 18.1088 219.713 18.723C219.205 18.0806 218.586 17.555 217.856 17.1459C216.881 16.5851 215.772 16.3046 214.528 16.3046C213.211 16.3046 212.029 16.5851 210.98 17.1459C210.524 17.3793 210.109 17.6588 209.736 17.9844V16.6705Z" fill="#0BB783"/>
</g>
<defs>
<clipPath id="clip0_9_34463">
<rect width="233" height="46.1386" fill="white"/>
</clipPath>
</defs>
</svg>
