<svg width="174" height="35" viewBox="0 0 174 35" fill="none" xmlns="http://www.w3.org/2000/svg">
<g clip-path="url(#clip0_12_34477)">
<path fill-rule="evenodd" clip-rule="evenodd" d="M22.0133 10.0656C20.5968 9.11906 18.9314 8.61386 17.2277 8.61386V0C20.635 0 23.9658 1.01039 26.7989 2.9034C29.632 4.7964 31.8401 7.48701 33.1441 10.6349C34.448 13.7829 34.7891 17.2468 34.1244 20.5887C33.4597 23.9305 31.8189 27.0002 29.4095 29.4095C27.0002 31.8189 23.9305 33.4597 20.5887 34.1244C17.2468 34.7891 13.7829 34.448 10.6349 33.1441C7.487 31.8401 4.7964 29.632 2.9034 26.7989C1.01039 23.9658 0 20.635 0 17.2277H8.61386C8.61386 18.9314 9.11906 20.5968 10.0656 22.0133C11.012 23.4299 12.3574 24.5339 13.9314 25.1859C15.5053 25.8379 17.2373 26.0084 18.9082 25.676C20.5791 25.3437 22.1139 24.5233 23.3187 23.3187C24.5233 22.1139 25.3437 20.5791 25.676 18.9082C26.0084 17.2373 25.8379 15.5053 25.1859 13.9314C24.5339 12.3574 23.4299 11.012 22.0133 10.0656Z" fill="#D7F9EF"/>
<path fill-rule="evenodd" clip-rule="evenodd" d="M8.61386 4.55237e-06C8.61386 1.13119 8.39106 2.25131 7.95817 3.29639C7.52528 4.34147 6.89079 5.29105 6.09092 6.09093C5.29105 6.8908 4.34147 7.52529 3.29638 7.95818C2.2513 8.39106 1.13118 8.61387 3.7652e-07 8.61387L0 17.2277C2.26237 17.2277 4.5026 16.7821 6.59277 15.9164C8.68294 15.0506 10.5821 13.7816 12.1818 12.1818C13.7816 10.5821 15.0506 8.68295 15.9163 6.59277C16.7821 4.5026 17.2277 2.26237 17.2277 0L8.61386 4.55237e-06Z" fill="#D7F9EF"/>
<path d="M108.206 12.4492H104.027V25.7251H108.206V12.4492Z" fill="#D7F9EF"/>
<path d="M104.492 9.9633C104.929 10.4004 105.475 10.6189 106.131 10.6189C106.786 10.6189 107.324 10.4004 107.742 9.9633C108.162 9.50806 108.371 8.96168 108.371 8.3243C108.371 7.66871 108.162 7.12235 107.742 6.6853C107.324 6.24822 106.786 6.02969 106.131 6.02969C105.475 6.02969 104.929 6.24822 104.492 6.6853C104.073 7.12235 103.863 7.66871 103.863 8.3243C103.863 8.96168 104.073 9.50806 104.492 9.9633Z" fill="#D7F9EF"/>
<path d="M44.0652 25.7251V6.43945H48.3539V21.9555H56.9041V25.7251H44.0652Z" fill="#D7F9EF"/>
<path fill-rule="evenodd" clip-rule="evenodd" d="M64.6277 26.0256C63.2619 26.0256 62.0235 25.7251 60.9126 25.1241C59.8199 24.505 58.9549 23.6673 58.3175 22.611C57.6802 21.5547 57.3615 20.371 57.3615 19.0598C57.3615 17.7486 57.6802 16.574 58.3175 15.536C58.9549 14.4979 59.8199 13.6784 60.9126 13.0775C62.0053 12.4582 63.2437 12.1487 64.6277 12.1487C66.0117 12.1487 67.2501 12.4492 68.3427 13.0501C69.4354 13.6511 70.3005 14.4797 70.9378 15.536C71.5753 16.574 71.894 17.7486 71.894 19.0598C71.894 20.371 71.5753 21.5547 70.9378 22.611C70.3005 23.6673 69.4354 24.505 68.3427 25.1241C67.2501 25.7251 66.0117 26.0256 64.6277 26.0256ZM64.6277 22.2286C65.2287 22.2286 65.7568 22.1011 66.2121 21.8461C66.6673 21.573 67.0134 21.1997 67.2501 20.7262C67.505 20.2345 67.6325 19.679 67.6325 19.0598C67.6325 18.4406 67.505 17.9034 67.2501 17.4482C66.9951 16.9747 66.64 16.6105 66.1847 16.3555C65.7476 16.0823 65.2287 15.9457 64.6277 15.9457C64.0449 15.9457 63.526 16.0823 63.0706 16.3555C62.6154 16.6105 62.2602 16.9747 62.0053 17.4482C61.7503 17.9217 61.6229 18.468 61.6229 19.0871C61.6229 19.6881 61.7503 20.2345 62.0053 20.7262C62.2602 21.1997 62.6154 21.573 63.0706 21.8461C63.526 22.1011 64.0449 22.2286 64.6277 22.2286Z" fill="#D7F9EF"/>
<path fill-rule="evenodd" clip-rule="evenodd" d="M75.204 30.9153C76.3149 31.4252 77.5988 31.6802 79.0557 31.6802C80.4761 31.6802 81.7419 31.3979 82.8527 30.8333C83.9636 30.2688 84.8377 29.4858 85.4751 28.4842C86.1125 27.4825 86.4316 26.2988 86.4316 24.9329V12.4492H82.3336V13.3412C82.0289 13.0846 81.6828 12.8693 81.2957 12.695C80.5854 12.349 79.775 12.176 78.8645 12.176C77.6443 12.176 76.5607 12.4674 75.6138 13.0501C74.6667 13.6147 73.9201 14.3977 73.3738 15.3994C72.8274 16.3828 72.5543 17.4936 72.5543 18.7321C72.5543 19.9522 72.8274 21.0631 73.3738 22.0647C73.9201 23.0663 74.6667 23.8585 75.6138 24.4412C76.5607 25.024 77.6443 25.3154 78.8645 25.3154C79.7568 25.3154 80.5672 25.1424 81.2957 24.7964C81.6485 24.6288 81.9672 24.4313 82.2517 24.2038V25.0422C82.2517 25.971 81.9513 26.6903 81.3503 27.2003C80.7676 27.7102 79.9572 27.9651 78.9191 27.9651C78.0814 27.9651 77.3621 27.8194 76.7611 27.528C76.1783 27.2367 75.6501 26.8087 75.1766 26.2441L72.6089 28.8119C73.2463 29.7225 74.1114 30.4237 75.204 30.9153ZM81.1591 21.2178C80.7402 21.4728 80.2394 21.6003 79.6566 21.6003C79.0739 21.6003 78.564 21.4728 78.1269 21.2178C77.708 20.9629 77.3802 20.6169 77.1435 20.1798C76.9067 19.7245 76.7884 19.2419 76.7884 18.7321C76.7884 18.1857 76.9067 17.694 77.1435 17.2569C77.3802 16.8199 77.7171 16.4739 78.1542 16.2189C78.5913 15.9639 79.0921 15.8364 79.6566 15.8364C80.2394 15.8364 80.7402 15.9639 81.1591 16.2189C81.5961 16.4739 81.9239 16.8199 82.1425 17.2569C82.3792 17.694 82.4976 18.1857 82.4976 18.7321C82.4976 19.2784 82.3792 19.77 82.1425 20.2071C81.9239 20.626 81.5961 20.9629 81.1591 21.2178Z" fill="#D7F9EF"/>
<path fill-rule="evenodd" clip-rule="evenodd" d="M95.2271 26.0256C93.8609 26.0256 92.6223 25.7251 91.5119 25.1241C90.4188 24.505 89.554 23.6673 88.9166 22.611C88.2792 21.5547 87.9604 20.371 87.9604 19.0598C87.9604 17.7486 88.2792 16.574 88.9166 15.536C89.554 14.4979 90.4188 13.6784 91.5119 13.0775C92.6042 12.4582 93.8429 12.1487 95.2271 12.1487C96.6105 12.1487 97.8492 12.4492 98.9414 13.0501C100.035 13.6511 100.899 14.4797 101.537 15.536C102.174 16.574 102.493 17.7486 102.493 19.0598C102.493 20.371 102.174 21.5547 101.537 22.611C100.899 23.6673 100.035 24.505 98.9414 25.1241C97.8492 25.7251 96.6105 26.0256 95.2271 26.0256ZM95.2271 22.2286C95.8275 22.2286 96.3555 22.1011 96.8112 21.8461C97.266 21.573 97.6123 21.1997 97.8492 20.7262C98.1041 20.2345 98.2316 19.679 98.2316 19.0598C98.2316 18.4406 98.1041 17.9034 97.8492 17.4482C97.5942 16.9747 97.2393 16.6105 96.7836 16.3555C96.3469 16.0823 95.8275 15.9457 95.2271 15.9457C94.6439 15.9457 94.1245 16.0823 93.6697 16.3555C93.214 16.6105 92.8592 16.9747 92.6042 17.4482C92.3492 17.9217 92.2217 18.468 92.2217 19.0871C92.2217 19.6881 92.3492 20.2345 92.6042 20.7262C92.8592 21.1997 93.214 21.573 93.6697 21.8461C94.1245 22.1011 94.6439 22.2286 95.2271 22.2286Z" fill="#D7F9EF"/>
<path fill-rule="evenodd" clip-rule="evenodd" d="M118.252 25.9983C117.36 25.9983 116.54 25.8253 115.793 25.4793C115.401 25.2972 115.046 25.0798 114.729 24.8271V31.3251H110.604V12.4492H114.783V13.3655C115.086 13.1175 115.423 12.9031 115.793 12.7223C116.54 12.3581 117.36 12.176 118.252 12.176C119.509 12.176 120.62 12.4765 121.585 13.0775C122.568 13.6784 123.333 14.4979 123.879 15.536C124.444 16.574 124.726 17.7577 124.726 19.0871C124.726 20.4166 124.444 21.6003 123.879 22.6384C123.333 23.6764 122.568 24.4959 121.585 25.0968C120.62 25.6978 119.509 25.9983 118.252 25.9983ZM117.488 22.2286C118.088 22.2286 118.608 22.092 119.044 21.8188C119.5 21.5457 119.855 21.1723 120.11 20.6989C120.365 20.2254 120.492 19.6881 120.492 19.0871C120.492 18.468 120.365 17.9217 120.11 17.4482C119.855 16.9747 119.5 16.6105 119.044 16.3555C118.608 16.0823 118.098 15.9457 117.515 15.9457C116.932 15.9457 116.413 16.0823 115.958 16.3555C115.52 16.6105 115.175 16.9747 114.92 17.4482C114.665 17.9217 114.538 18.468 114.538 19.0871C114.538 19.6881 114.656 20.2254 114.892 20.6989C115.147 21.1723 115.502 21.5457 115.958 21.8188C116.413 22.092 116.923 22.2286 117.488 22.2286Z" fill="#D7F9EF"/>
<path d="M128.817 25.7524C129.582 25.9528 130.355 26.0529 131.138 26.0529C132.796 26.0529 134.107 25.6705 135.072 24.9056C136.055 24.1408 136.547 23.1119 136.547 21.8188C136.547 20.9811 136.393 20.3073 136.083 19.7974C135.773 19.2693 135.373 18.8504 134.881 18.5408C134.389 18.2313 133.87 17.9853 133.324 17.8032C132.778 17.6211 132.258 17.4663 131.767 17.3389C131.275 17.2114 130.875 17.0657 130.565 16.9018C130.255 16.7379 130.1 16.5193 130.1 16.2462C130.1 15.9912 130.219 15.8 130.455 15.6725C130.692 15.5268 131.047 15.4541 131.521 15.4541C132.013 15.4541 132.513 15.5541 133.023 15.7545C133.551 15.9548 134.025 16.3009 134.444 16.7926L136.82 14.3887C136.22 13.6238 135.437 13.0501 134.471 12.6677C133.524 12.2671 132.486 12.0667 131.357 12.0667C130.283 12.0667 129.345 12.2488 128.544 12.613C127.742 12.9773 127.123 13.4781 126.686 14.1155C126.249 14.7346 126.03 15.4722 126.03 16.3282C126.03 17.1295 126.185 17.7942 126.495 18.3223C126.804 18.8322 127.205 19.2329 127.696 19.5242C128.188 19.8156 128.708 20.0433 129.254 20.2071C129.8 20.371 130.319 20.5258 130.811 20.6716C131.302 20.799 131.703 20.9538 132.013 21.1359C132.341 21.2999 132.505 21.5457 132.505 21.8734C132.505 22.1284 132.368 22.3287 132.095 22.4744C131.84 22.6201 131.467 22.693 130.975 22.693C130.264 22.693 129.609 22.5655 129.008 22.3105C128.407 22.0374 127.888 21.664 127.451 21.1905L125.074 23.5944C125.53 24.0861 126.076 24.5232 126.713 24.9056C127.369 25.2698 128.07 25.5521 128.817 25.7524Z" fill="#D7F9EF"/>
<path d="M144.168 26.0256C142.949 26.0256 141.865 25.7797 140.918 25.2881C139.989 24.7781 139.261 24.0861 138.733 23.2119C138.204 22.3196 137.941 21.2998 137.941 20.1525V12.4492H142.12V20.0979C142.12 20.5531 142.192 20.9447 142.339 21.2725C142.503 21.6003 142.739 21.8553 143.049 22.0374C143.359 22.2195 143.732 22.3105 144.168 22.3105C144.788 22.3105 145.28 22.1193 145.644 21.7368C146.008 21.3362 146.19 20.7899 146.19 20.0979V12.4492H150.37V20.1252C150.37 21.2907 150.106 22.3196 149.577 23.2119C149.049 24.0861 148.321 24.7781 147.392 25.2881C146.463 25.7797 145.389 26.0256 144.168 26.0256Z" fill="#D7F9EF"/>
<path d="M156.627 12.4492H152.447V25.7251H156.627V17.9672C156.627 17.5119 156.718 17.1295 156.9 16.8199C157.1 16.5103 157.365 16.2735 157.692 16.1097C158.02 15.9275 158.393 15.8364 158.812 15.8364C159.413 15.8364 159.914 16.0277 160.314 16.4101C160.734 16.7743 160.943 17.2934 160.943 17.9672V25.7251H165.123V17.9672C165.123 17.5119 165.214 17.1295 165.396 16.8199C165.596 16.5103 165.86 16.2735 166.188 16.1097C166.515 15.9275 166.889 15.8364 167.308 15.8364C167.909 15.8364 168.41 16.0277 168.81 16.4101C169.229 16.7743 169.438 17.2934 169.438 17.9672V25.7251H173.618V17.5028C173.618 16.3919 173.382 15.4449 172.908 14.6618C172.452 13.8605 171.824 13.2505 171.023 12.8317C170.24 12.3945 169.338 12.176 168.318 12.176C167.28 12.176 166.342 12.4036 165.505 12.859C164.961 13.149 164.485 13.5233 164.078 13.9819C163.698 13.5022 163.236 13.1097 162.691 12.8043C161.963 12.3855 161.134 12.176 160.206 12.176C159.222 12.176 158.339 12.3855 157.556 12.8043C157.215 12.9785 156.906 13.1872 156.627 13.4304V12.4492Z" fill="#D7F9EF"/>
</g>
<defs>
<clipPath id="clip0_12_34477">
<rect width="174" height="34.4554" fill="white"/>
</clipPath>
</defs>
</svg>
